HIERARCHY
ROOT pelvis
{
  OFFSET 0.0 0.0 0.00
  CHANNELS 6 Xposition Yposition Zposition Zrotation Yrotation Xrotation
  JOINT waist
  {
    OFFSET 0.0 20.6881 -0.731520
    CHANNELS 3 Zrotation Xrotation Yrotation
    JOINT neck
    {
      OFFSET 0.0 33.8937 -2.682240
      CHANNELS 3 Zrotation Xrotation Yrotation
      JOINT forehead
      {
        OFFSET 0.08128 7.7216 5.770880
        CHANNELS 3 Zrotation Xrotation Yrotation
        End Site
        {
          OFFSET 0.0 0.0 0.0
        }
      }
    }
    JOINT r_shoulder
    {
      OFFSET -11.46048 29.01697 -3.90144000000000050
      CHANNELS 3 Zrotation Xrotation Yrotation
      JOINT r_elbow
      {
        OFFSET -28.1742 -1.7115 0.487680
        CHANNELS 3 Zrotation Xrotation Yrotation
        JOINT r_wrist
        {
          OFFSET -22.5879 0.773209 7.071360
          CHANNELS 3 Zrotation Xrotation Yrotation
          End Site
          {
            OFFSET 0.0 0.0 0.0
          }
        }
      }
    }
    JOINT l_shoulder
    {
      OFFSET 11.46048 29.01697 -3.90144000000000050
      CHANNELS 3 Zrotation Xrotation Yrotation
      JOINT l_elbow
      {
        OFFSET 28.1742 -1.7115 0.487680
        CHANNELS 3 Zrotation Xrotation Yrotation
        JOINT l_wrist
        {
          OFFSET 22.5879 0.773209 7.071360
          CHANNELS 3 Zrotation Xrotation Yrotation
          End Site
          {
            OFFSET 0.0 0.0 0.0
          }
        }
      }
    }
  }
  JOINT r_hip
  {
    OFFSET -8.77824 2.64397 -0.975360
    CHANNELS 3 Zrotation Xrotation Yrotation
    JOINT r_knee
    {
      OFFSET 0.0 -36.8199 0.731520
      CHANNELS 3 Zrotation Xrotation Yrotation
      JOINT r_ankle
      {
        OFFSET 0.73152 -45.1104 -5.120640
        CHANNELS 3 Zrotation Xrotation Yrotation
        JOINT r_toe
        {
          OFFSET -1.1221 -3.69964 12.1030
          CHANNELS 3 Zrotation Xrotation Yrotation
          End Site
          {
            OFFSET 0.0 0.0 0.0
          }
        }
      }
    }
  }
  JOINT l_hip
  {
    OFFSET 8.77824 2.64397 -0.975360
    CHANNELS 3 Zrotation Xrotation Yrotation
    JOINT l_knee
    {
      OFFSET 0.0 -36.8199 0.731520
      CHANNELS 3 Zrotation Xrotation Yrotation
      JOINT l_ankle
      {
        OFFSET -0.73152 -45.1104 -5.120640
        CHANNELS 3 Zrotation Xrotation Yrotation
        JOINT l_toe
        {
          OFFSET 1.1221 -3.69964 12.1030
          CHANNELS 3 Zrotation Xrotation Yrotation
          End Site
          {
            OFFSET 0.0 0.0 0.0
          }
        }
      }
    }
  }
}
MOTION
Frames: 8
Frame Time: 0.01
51.31605696210369 77.19042581979016 -214.05261762673564 -6.12072 -7.82541 0.04644 6.66954 11.40904 3.60625 -5.46308 -34.94703 3.04909 0.0 0.0 0.0 46.20918 38.56557 36.37951 -22.94313 -17.59484 47.50604 -0.55602 -20.14704 -2.96849 -78.11644 -19.48662 18.16462 6.40075 -2.23616 -11.22364 0.06575 -7.13747 1.00893 9.72576 15.98167 3.96478 0.08103 6.89835 0.79588 -2.47378 -14.35714 -7.05061 0.0 0.0 0.0 9.67284 -44.06607 -1.16397 0.19099 31.40734 -0.80464 3.43441 -6.13456 13.25301 0.0 0.0 0.0
51.02247602536247 76.609807133324 -211.13557780366938 -6.28071 -8.46254 -0.02427 6.7398 11.69004 3.91845 -5.42647 -35.55981 3.31888 0.0 0.0 0.0 46.77074 39.0742 37.12936 -23.35032 -18.00195 48.29403 -0.55653 -20.39383 -3.00182 -79.22751 -20.31804 18.94416 6.45275 -2.24959 -11.30987 0.05793 -6.74649 0.95294 9.55024 17.59435 4.60976 0.08385 6.43004 0.80017 -2.39976 -13.96722 -7.16249 0.0 0.0 0.0 10.11571 -44.34105 -1.29857 0.18586 31.71593 -0.83086 3.65322 -6.61081 13.91194 0.0 0.0 0.0
51.27869341328642 76.8082696405508 -210.36854780777486 -6.3456 -9.04088 -0.03781 6.65227 11.68608 4.233 -5.17107 -35.55717 3.60396 0.0 0.0 0.0 46.94831 39.09033 37.05316 -23.48351 -18.18974 48.34437 -0.54524 -20.35781 -2.99243 -79.25148 -20.63666 19.44428 6.44463 -2.24541 -11.28883 0.05251 -6.45353 0.91109 9.16127 18.78793 5.21024 0.08562 6.07055 0.79758 -2.27949 -13.15017 -7.17878 0.0 0.0 0.0 10.37772 -44.03819 -1.24499 0.17995 31.85252 -0.84715 3.80024 -6.87011 14.27327 0.0 0.0 0.0
51.25987823716318 76.5552716722724 -208.26225782627446 -6.2768 -9.55761 -0.01906 6.47348 11.53221 4.58147 -4.7536 -35.41973 3.94735 0.0 0.0 0.0 47.23904 39.09185 36.74284 -23.55067 -18.28835 48.35835 -0.53918 -20.33564 -2.98707 -79.28524 -20.66158 19.89305 6.46816 -2.25646 -11.32771 0.05137 -6.39848 0.9032 8.68293 19.77831 5.77023 0.08692 5.96432 0.80203 -2.15482 -12.19888 -7.19918 0.0 0.0 0.0 10.55489 -43.75776 -0.97522 0.18194 32.37384 -0.86756 3.89964 -7.02893 14.50338 0.0 0.0 0.0
51.451434312465295 76.57293329468305 -206.8528938761617 -6.1411 -9.95302 0.02538 6.23837 11.25904 4.93198 -4.20182 -35.18365 4.34856 0.0 0.0 0.0 47.67025 39.12739 36.23171 -23.57555 -18.3253 48.35468 -0.53652 -20.32444 -2.98449 -79.34685 -20.58048 20.29384 6.49543 -2.26929 -11.37531 0.05121 -6.39466 0.90265 8.15153 20.50808 6.26943 0.08747 6.20852 0.81319 -2.02517 -11.10892 -7.18583 0.0 0.0 0.0 10.6532 -43.55589 -0.47892 0.19157 33.20961 -0.88636 3.94282 -6.93283 14.72007 0.0 0.0 0.0
51.589089517393816 76.48935743152452 -205.09515986693845 -5.98265 -10.21101 0.10602 5.97985 10.90299 5.24147 -3.55025 -34.87433 4.80587 0.0 0.0 0.0 48.23616 39.22317 35.54975 -23.57955 -18.32137 48.32223 -0.53427 -20.30451 -2.98087 -79.39491 -20.63299 20.6453 6.48419 -2.26418 -11.3543 0.04774 -6.18352 0.87264 7.59222 20.9743 6.68534 0.08678 6.87785 0.83023 -1.88175 -9.89901 -7.08553 0.0 0.0 0.0 10.68188 -43.42904 0.25312 0.20754 34.25014 -0.89635 3.91059 -6.43687 15.07908 0.0 0.0 0.0
51.73417799945503 76.394482931867 -203.26876301700125 -5.74914 -10.34466 0.21189 5.71011 10.47746 5.47717 -2.82435 -34.47512 5.30487 0.0 0.0 0.0 48.86981 39.34866 34.69087 -23.5443 -18.26508 48.20835 -0.53083 -20.24612 -2.97146 -79.32226 -20.91201 20.92909 6.40755 -2.22938 -11.21634 0.03961 -5.63773 0.79512 7.02155 21.14539 6.99854 0.0844 7.99512 0.85116 -1.72628 -8.55972 -6.87433 0.0 0.0 0.0 10.63303 -43.33721 1.19935 0.22835 35.37792 -0.89281 3.78538 -5.47098 15.61415 0.0 0.0 0.0
51.90193966617578 76.32023960971662 -201.4611836581846 -5.47039 -10.37166 0.33062 5.40282 9.99769 5.61512 -2.05941 -34.01733 5.80773 0.0 0.0 0.0 49.63099 39.54915 33.6601 -23.48663 -18.17056 48.03567 -0.52684 -20.17356 -2.95988 -79.18908 -21.32208 21.1506 6.28514 -2.17361 -10.99664 0.02976 -4.86959 0.68625 6.45828 21.0434 7.21136 0.08009 9.54538 0.87275 -1.56571 -7.04211 -6.62446 0.0 0.0 0.0 10.47854 -43.27495 2.2369 0.25228 36.55581 -0.87833 3.5571 -4.19761 16.12008 0.0 0.0 0.0
